<svg xmlns="http://www.w3.org/2000/svg" xmlns:xlink="http://www.w3.org/1999/xlink" viewBox="0 0 503.158 330.467">
  <defs>
    <clipPath id="clip-path">
      <rect id="Rectangle_170" data-name="Rectangle 170" width="122.541" height="56.484" fill="none"/>
    </clipPath>
    <clipPath id="clip-path-3">
      <rect id="Rectangle_172" data-name="Rectangle 172" width="147.91" height="62.509" fill="none"/>
    </clipPath>
  </defs>
  <g id="LOGO_COLORED" data-name="LOGO COLORED" transform="translate(3.158 -22.907)">
    <g id="Group_263" data-name="Group 263" transform="translate(-3.158 232.623)">
      <path id="Path_154" data-name="Path 154" d="M430.215,107.387V105.02H414.42v2.367h6.714v14.97H423.5v-14.97Z" transform="translate(-205.284 -8.709)" fill="#8d0034"/>
      <path id="Path_155" data-name="Path 155" d="M395.282,105.03a8.669,8.669,0,1,0,4.7,15.948l1.225,1.39h2.768l-2.391-2.709a8.656,8.656,0,0,0-6.3-14.629m2.768,10.636h-2.768l3.109,3.51a6.331,6.331,0,1,1,1.6-1.3l-1.955-2.214Z" transform="translate(-210.233 -8.707)" fill="#8d0034"/>
      <path id="Path_156" data-name="Path 156" d="M454.442,110.342a5.327,5.327,0,0,0-5.23-5.312h-7.3v17.338h2.367v-6.7h4.7l3.793,6.7h2.367l-4.016-7.091a5.3,5.3,0,0,0,3.322-4.923M444.277,107.4h4.841a2.956,2.956,0,0,1,0,5.913h-4.841V107.4Z" transform="translate(-200.395 -8.707)" fill="#8d0034"/>
      <path id="Path_157" data-name="Path 157" d="M435.29,105.03h-2.367l-7.1,17.338h2.367l1.778-4.334h8.292l1.778,4.334H442.4l-7.1-17.338Zm1.99,10.636h-6.36l3.18-7.75,3.18,7.75Z" transform="translate(-203.257 -8.707)" fill="#8d0034"/>
      <path id="Path_158" data-name="Path 158" d="M411.822,105.03h-2.367l-7.114,17.338h2.368l1.778-4.334h8.292l1.779,4.334h2.367L411.81,105.03Zm1.991,10.636h-6.36l3.18-7.75Z" transform="translate(-207.432 -8.707)" fill="#8d0034"/>
      <path id="Path_159" data-name="Path 159" d="M524.1,115.623a7.1,7.1,0,1,0-12.391,4.723h-9.564a7.081,7.081,0,0,0-5.288-11.814h-7.891V103.02h-2.367v17.338H467.241V110.9h-2.367v11.825a4.725,4.725,0,0,1-4.735,4.723,4.379,4.379,0,0,1-.789-.082v2.367a5.781,5.781,0,0,0,.789.082,7.092,7.092,0,0,0,7.1-6.937h0v-.153h49.811a7.106,7.106,0,0,0,7.055-7.091M488.961,110.9h7.891a4.729,4.729,0,1,1,0,9.458h-7.9V110.9ZM517,120.358h-.012a4.729,4.729,0,1,1,4.735-4.723,4.733,4.733,0,0,1-4.735,4.723" transform="translate(-197.294 -9.064)" fill="#8d0034"/>
      <rect id="Rectangle_173" data-name="Rectangle 173" width="2.367" height="2.367" transform="translate(316.542 93.956)" fill="#8d0034"/>
      <rect id="Rectangle_174" data-name="Rectangle 174" width="2.367" height="2.367" transform="translate(320.488 93.956)" fill="#8d0034"/>
      <path id="Path_105" data-name="Path 105" d="M560.834,23.25l-4.17,2.509a1.65,1.65,0,0,0-.825,1.4V50.894h4.982V23.25Z" transform="translate(-180.135 -23.25)" fill="#00053e"/>
      <path id="Path_106" data-name="Path 106" d="M535.28,35.971h6.054a1.664,1.664,0,0,0,1.4-.813L545.257,31H535.28a9.96,9.96,0,0,0-9.976,9.953,9.831,9.831,0,0,0,1.39,4.982h-9.14V23.25l-4.169,2.509a1.649,1.649,0,0,0-.824,1.4V50.894H558V23.25l-4.17,2.509h0a1.65,1.65,0,0,0-.824,1.4V45.923H535.269a4.982,4.982,0,0,1,0-9.964" transform="translate(-187.832 -23.25)" fill="#00053e"/>
      <path id="Path_107" data-name="Path 107" d="M466.335,23.25l-4.17,2.509a1.649,1.649,0,0,0-.824,1.4V45.923H455.8V23.25l-4.17,2.509a1.675,1.675,0,0,0-.825,1.4V45.923h-9.14a9.821,9.821,0,0,0,1.39-4.97A9.96,9.96,0,0,0,433.084,31H420.894V23.262l-4.169,2.509a1.649,1.649,0,0,0-.824,1.4V45.935H403.709V33.744l-4.17,2.509h0a1.65,1.65,0,0,0-.824,1.4v8.268h-7.762V33.733l-4.17,2.509h0a1.649,1.649,0,0,0-.825,1.4V50.894a4.984,4.984,0,0,1-4.982,4.982,4.831,4.831,0,0,1-1.107-.13V60.74a8.6,8.6,0,0,0,1.107.118,9.96,9.96,0,0,0,9.976-9.953h75.358V23.25Zm-33.25,22.673H420.894V35.971h12.191a4.976,4.976,0,1,1,0,9.953" transform="translate(-211.428 -23.25)" fill="#00053e"/>
      <path id="Path_108" data-name="Path 108" d="M381.114,23.25l-4.17,2.509h0a1.649,1.649,0,0,0-.824,1.4V50.894H381.1V23.25Z" transform="translate(-212.095 -23.25)" fill="#00053e"/>
      <path id="Path_109" data-name="Path 109" d="M344.424,23.25l-4.17,2.509a1.649,1.649,0,0,0-.824,1.4V50.894h4.982V23.25Z" transform="translate(-218.62 -23.25)" fill="#00053e"/>
      <path id="Path_110" data-name="Path 110" d="M343.851,50.894V23.25l-4.169,2.509a1.649,1.649,0,0,0-.824,1.4V45.923H332.1a8.968,8.968,0,0,0,.118-1.131,9.976,9.976,0,0,0-19.952,0,8.945,8.945,0,0,0,.118,1.131H302.014a9.822,9.822,0,0,0,1.378-4.982,9.961,9.961,0,0,0-9.976-9.953H283.44l2.521,4.158a1.675,1.675,0,0,0,1.4.824h6.054a4.976,4.976,0,1,1,0,9.953H283.44v4.982h30.965a9.878,9.878,0,0,0,15.653,0h13.781Zm-21.613-1.131a4.976,4.976,0,1,1,4.982-4.97,4.974,4.974,0,0,1-4.982,4.97" transform="translate(-228.576 -23.25)" fill="#00053e"/>
      <path id="Path_111" data-name="Path 111" d="M579.472,50.894h90.881V23.25l-4.169,2.509h0a1.65,1.65,0,0,0-.824,1.4V45.923h-9.14a9.832,9.832,0,0,0,1.39-4.982,9.961,9.961,0,0,0-9.976-9.953h-7.444l-1.272-2.968a1.509,1.509,0,0,0-1.2-.883h0l-4.429-.612,2.108,4.912h0a9.837,9.837,0,0,0-5.783,14.487h-9.14V33.733L616.3,36.241a1.649,1.649,0,0,0-.824,1.4v8.268h-7.762V33.721l-4.17,2.509a1.65,1.65,0,0,0-.824,1.4V45.9H588.034a9.824,9.824,0,0,0,1.378-4.982,9.976,9.976,0,1,0-9.976,9.953M647.6,35.935h0a4.982,4.982,0,0,1,0,9.964h-1.025L642.3,35.947h5.3Zm-10.259.082,4.24,9.87h-3.4a4.968,4.968,0,0,1-.836-9.87m-57.9-.082a4.982,4.982,0,1,1-4.994,4.982,4.976,4.976,0,0,1,4.994-4.982" transform="translate(-177.713 -23.25)" fill="#00053e"/>
      <path id="Path_112" data-name="Path 112" d="M660.634,25.759h0a1.649,1.649,0,0,0-.824,1.4V50.894h4.982V23.25l-4.169,2.509Z" transform="translate(-161.646 -23.25)" fill="#00053e"/>
      <path id="Path_113" data-name="Path 113" d="M286.188,49.729h0V29.824l-4.169,2.509a1.675,1.675,0,0,0-.825,1.4V44.747h-6.655V37.279a7.479,7.479,0,0,0-14.958,0v7.467H246.836a4.982,4.982,0,0,1,0-9.964h4.429l-2.509-4.158a1.679,1.679,0,0,0-1.413-.824h-.506a9.953,9.953,0,1,0,0,19.905h17.726V37.267a2.5,2.5,0,0,1,4.994,0V49.705h16.619Z" transform="translate(-236.86 -22.085)" fill="#00053e"/>
      <path id="Path_114" data-name="Path 114" d="M505.916,33.672a9.96,9.96,0,0,0-9.976,9.953,8.968,8.968,0,0,0,.118,1.131H481.264a9.82,9.82,0,0,0,1.378-4.982,9.976,9.976,0,1,0-9.976,9.953h25.418a9.95,9.95,0,1,0,7.833-16.054m-33.25,11.083a4.976,4.976,0,1,1,4.982-4.982,4.976,4.976,0,0,1-4.982,4.982m33.25,3.852a4.976,4.976,0,1,1,4.982-4.97,4.974,4.974,0,0,1-4.982,4.97" transform="translate(-196.7 -22.082)" fill="#00053e"/>
      <path id="Path_115" data-name="Path 115" d="M359.421,81.295,351.942,63.05H346.96l9.976,24.334h4.982l9.976-24.334h-4.982Z" transform="translate(-217.281 -16.172)" fill="#00053e"/>
      <rect id="Rectangle_160" data-name="Rectangle 160" width="4.982" height="24.334" transform="translate(63.744 46.878)" fill="#00053e"/>
      <rect id="Rectangle_161" data-name="Rectangle 161" width="4.982" height="24.334" transform="translate(27.161 46.878)" fill="#00053e"/>
      <path id="Path_116" data-name="Path 116" d="M279.951,81.295,272.472,63.05H267.49l9.976,24.334h4.982l9.976-24.334h-4.982Z" transform="translate(-231.413 -16.172)" fill="#00053e"/>
      <rect id="Rectangle_162" data-name="Rectangle 162" width="4.982" height="24.334" transform="translate(157.936 46.878)" fill="#00053e"/>
      <path id="Path_117" data-name="Path 117" d="M563.832,73H553.3V63.05H548.32V87.384H553.3V77.431h10.53v9.953h4.994V63.05h-4.994Z" transform="translate(-181.472 -16.172)" fill="#00053e"/>
      <path id="Path_118" data-name="Path 118" d="M398.24,68.02h8.586V87.384h4.994V68.02h8.587V63.05H398.24Z" transform="translate(-208.161 -16.172)" fill="#00053e"/>
      <path id="Path_119" data-name="Path 119" d="M441.011,63.05A12.167,12.167,0,1,0,453.2,75.217,12.172,12.172,0,0,0,441.011,63.05m0,19.352a7.185,7.185,0,1,1,7.208-7.185,7.2,7.2,0,0,1-7.208,7.185" transform="translate(-202.723 -16.172)" fill="#00053e"/>
      <path id="Path_120" data-name="Path 120" d="M249.059,68.02h6.054a1.7,1.7,0,0,0,1.413-.813l2.521-4.158h-9.976a12.167,12.167,0,1,0,0,24.334h9.976V82.4h-9.976a7.185,7.185,0,1,1,0-14.37" transform="translate(-236.856 -16.172)" fill="#00053e"/>
      <rect id="Rectangle_163" data-name="Rectangle 163" width="4.982" height="24.334" transform="translate(216.674 46.878)" fill="#00053e"/>
      <path id="Path_121" data-name="Path 121" d="M468.887,79.834,457.8,63.05H452.81V87.384H457.8V70.6l11.083,16.784h4.982V63.05h-4.982Z" transform="translate(-198.457 -16.172)" fill="#00053e"/>
      <path id="Path_122" data-name="Path 122" d="M492.9,63.05h0L482.92,87.384H487.9L489.94,82.4h10.883l2.038,4.982h4.982L497.867,63.05h-4.982Zm-1.131,14.935,3.628-8.846,3.628,8.846Z" transform="translate(-193.102 -16.172)" fill="#00053e"/>
      <path id="Path_123" data-name="Path 123" d="M505.512,63.05h4.982V77.431a4.988,4.988,0,0,0,9.976,0V63.05h4.982V77.431a9.976,9.976,0,0,1-19.953,0V63.05Z" transform="translate(-189.087 -16.172)" fill="#00053e"/>
      <path id="Path_124" data-name="Path 124" d="M580.741,63.05a12.167,12.167,0,1,0,12.191,12.167A12.172,12.172,0,0,0,580.741,63.05m0,19.352a7.185,7.185,0,1,1,7.2-7.185,7.2,7.2,0,0,1-7.2,7.185" transform="translate(-177.874 -16.172)" fill="#00053e"/>
      <rect id="Rectangle_164" data-name="Rectangle 164" width="4.982" height="24.334" transform="translate(443.313 46.878)" fill="#00053e"/>
      <path id="Path_125" data-name="Path 125" d="M612.576,71.342a8.3,8.3,0,0,0-8.315-8.292H592.07V87.384h4.982V79.646h5.135l5.395,7.738h4.982l-5.712-8.2a8.27,8.27,0,0,0,5.712-7.844m-8.315,3.321H597.04V68.032h7.208a3.321,3.321,0,1,1,0,6.643" transform="translate(-173.692 -16.172)" fill="#00053e"/>
      <path id="Path_126" data-name="Path 126" d="M655.541,74.958l-7.2-11.908H643.35l9.694,16.03v8.3h4.994v-8.3l9.694-16.03h-4.982Z" transform="translate(-164.573 -16.172)" fill="#00053e"/>
      <path id="Path_127" data-name="Path 127" d="M387.986,63.05h0L378.01,87.384h4.982L385.03,82.4h10.883l2.038,4.982h4.982L392.957,63.05h-4.982Zm-1.131,14.935,3.628-8.846,3.628,8.846Z" transform="translate(-211.759 -16.172)" fill="#00053e"/>
      <path id="Path_128" data-name="Path 128" d="M344.038,63.05h-4.982L329.08,87.384h4.982L336.1,82.4h10.883l2.038,4.982H354L344.027,63.05Zm1.131,14.935h-7.255l3.628-8.846Z" transform="translate(-220.46 -16.172)" fill="#00053e"/>
      <path id="Path_129" data-name="Path 129" d="M374.683,32.15l-4.17,2.509a1.65,1.65,0,0,0-.825,1.4v3.3a4.984,4.984,0,0,1-4.982,4.982h-1.661a4.976,4.976,0,0,1-4.982-4.982V32.15l-4.169,2.509a1.649,1.649,0,0,0-.824,1.4v3.3a9.96,9.96,0,0,0,9.976,9.953h1.661a9.968,9.968,0,0,0,9.976-9.953V32.15Z" transform="translate(-216.194 -21.667)" fill="#00053e"/>
      <path id="Path_130" data-name="Path 130" d="M525.74,68.02h8.587V87.384h4.982V68.02h8.586V63.05H525.74Z" transform="translate(-185.488 -16.172)" fill="#00053e"/>
      <path id="Path_131" data-name="Path 131" d="M621.24,68.02h8.586V87.384h4.994V68.02h8.586V63.05H621.24Z" transform="translate(-168.505 -16.172)" fill="#00053e"/>
      <path id="Path_132" data-name="Path 132" d="M577.846,26.242V23.25h-2.992a1.287,1.287,0,0,0-1.284,1.284v2.992h2.992a1.287,1.287,0,0,0,1.284-1.284" transform="translate(-176.982 -23.25)" fill="#00053e"/>
      <path id="Path_133" data-name="Path 133" d="M582.986,26.242V23.25h-2.992a1.287,1.287,0,0,0-1.284,1.284v2.992H581.7a1.287,1.287,0,0,0,1.284-1.284" transform="translate(-176.068 -23.25)" fill="#00053e"/>
      <path id="Path_134" data-name="Path 134" d="M606.57,50.664v2.992h2.992a1.287,1.287,0,0,0,1.284-1.284V49.38h-2.992a1.287,1.287,0,0,0-1.284,1.284" transform="translate(-171.113 -18.603)" fill="#00053e"/>
      <path id="Path_135" data-name="Path 135" d="M615.985,52.372V49.38h-2.992a1.287,1.287,0,0,0-1.284,1.284v2.992H614.7a1.287,1.287,0,0,0,1.284-1.284" transform="translate(-170.199 -18.603)" fill="#00053e"/>
      <path id="Path_136" data-name="Path 136" d="M471.055,26.242V23.25h-2.992a1.287,1.287,0,0,0-1.284,1.284v2.992h2.992a1.287,1.287,0,0,0,1.284-1.284" transform="translate(-195.973 -23.25)" fill="#00053e"/>
      <path id="Path_137" data-name="Path 137" d="M476.186,26.242V23.25h-2.992a1.287,1.287,0,0,0-1.284,1.284v2.992H474.9a1.287,1.287,0,0,0,1.284-1.284" transform="translate(-195.06 -23.25)" fill="#00053e"/>
      <path id="Path_138" data-name="Path 138" d="M397.9,52.372V49.38H394.9a1.287,1.287,0,0,0-1.284,1.284v2.992h2.992a1.287,1.287,0,0,0,1.284-1.284" transform="translate(-208.983 -18.603)" fill="#00053e"/>
      <path id="Path_139" data-name="Path 139" d="M403.036,52.372V49.38h-2.992a1.287,1.287,0,0,0-1.284,1.284v2.992h2.992a1.287,1.287,0,0,0,1.284-1.284" transform="translate(-208.069 -18.603)" fill="#00053e"/>
      <path id="Path_140" data-name="Path 140" d="M364.706,26.242V23.25h-2.992a1.287,1.287,0,0,0-1.284,1.284v2.992h2.992a1.287,1.287,0,0,0,1.284-1.284" transform="translate(-214.885 -23.25)" fill="#00053e"/>
      <path id="Path_141" data-name="Path 141" d="M279.086,26.242V23.25h-2.992a1.287,1.287,0,0,0-1.284,1.284v2.992H277.8a1.287,1.287,0,0,0,1.284-1.284" transform="translate(-230.111 -23.25)" fill="#00053e"/>
      <path id="Path_142" data-name="Path 142" d="M250.876,52.372V49.38h-2.992a1.287,1.287,0,0,0-1.284,1.284v2.992h2.992a1.287,1.287,0,0,0,1.284-1.284" transform="translate(-235.128 -18.603)" fill="#00053e"/>
      <path id="Path_143" data-name="Path 143" d="M256.016,52.372V49.38h-2.992a1.287,1.287,0,0,0-1.284,1.284v2.992h2.992a1.287,1.287,0,0,0,1.284-1.284" transform="translate(-234.214 -18.603)" fill="#00053e"/>
      <path id="Path_144" data-name="Path 144" d="M604.819,27.584h-2a1.06,1.06,0,0,1,0-2.12h2V23.25h-2a3.285,3.285,0,0,0-3.286,3.274,3.125,3.125,0,0,0,.177,1.06H596.15V29.8h8.657V27.584Z" transform="translate(-172.966 -23.25)" fill="#00053e"/>
      <path id="Path_145" data-name="Path 145" d="M304.432,82.4V63.05H299.45V87.384h20.506a1.7,1.7,0,0,0,1.413-.813l2.521-4.158H304.456Z" transform="translate(-225.729 -16.172)" fill="#00053e"/>
    </g>
    <g id="Group_267" data-name="Group 267" transform="translate(122.051 22.907)">
      <path id="Path_149" data-name="Path 149" d="M69.726,77.738c73.083,0,131.777-19.425,131.777-19.425C42.322,76.179,42.194,51.392,44.881,41.109S57.815,23.58,57.815,23.58C15.8,41.656-3.356,77.738,69.726,77.738" transform="translate(-11.213 3.848)" fill="#0095da"/>
      <path id="Path_148" data-name="Path 148" d="M25.76,102.083s17.669,20.67,44.2,20.67c30.394,0,74.2-12.5,148.992-52.343,0,0-154.656,63.009-193.192,31.673" transform="translate(-10.366 11.489)" fill="#8d0034"/>
      <path id="Path_147" data-name="Path 147" d="M109.179,92.848c39.269-7.735,102.79-30.789,102.79-30.789S121.858,85.032,63.839,85.032c-51.575,0-50.622-18.867-49.772-23.066-12.69,50.656,56.054,38.583,95.113,30.882M14.066,61.966c.07-.268.14-.547.209-.826a6.219,6.219,0,0,0-.209.826" transform="translate(-12.526 9.977)" fill="#3abb9d"/>
      <path id="Path_160" data-name="Path 160" d="M178.91,52.16l18.3,19.739,40.909-18.611s-26.532,11.434-59.206-1.117" transform="translate(14.625 8.511)" fill="#003b82"/>
      <path id="Path_161" data-name="Path 161" d="M115.474,142.2A78.093,78.093,0,0,0,190.511,85.72c-52.506,26.125-91.984,39.106-122.541,40.374a77.764,77.764,0,0,0,47.493,16.122" transform="translate(-3.478 13.988)" fill="#d5d8da"/>
      <path id="Path_162" data-name="Path 162" d="M81.355,61.7c25.555,2.024,63.486.291,112.724-5.153A78.082,78.082,0,0,0,46.18,49.97a4.788,4.788,0,0,0,1.186,2.291c2.338,2.7,9.864,7.526,34,9.433" transform="translate(-7.034)" fill="#d5d8da"/>
      <g id="Group_265" data-name="Group 265" transform="translate(64.503 99.696)">
        <g id="Group_256" data-name="Group 256" clip-path="url(#clip-path)">
          <g id="Group_255" data-name="Group 255" clip-path="url(#clip-path)">
            <path id="Path_152" data-name="Path 152" d="M115.474,142.2A78.093,78.093,0,0,0,190.511,85.72c-52.506,26.125-91.984,39.106-122.541,40.374a77.764,77.764,0,0,0,47.493,16.122" transform="translate(-67.982 -85.708)" fill="#7b868c"/>
          </g>
        </g>
      </g>
      <g id="Group_266" data-name="Group 266" transform="translate(39.146)">
        <g id="Group_259" data-name="Group 259" clip-path="url(#clip-path-3)">
          <g id="Group_258" data-name="Group 258" clip-path="url(#clip-path-3)">
            <path id="Path_153" data-name="Path 153" d="M81.355,61.7c25.555,2.024,63.486.291,112.724-5.153A78.082,78.082,0,0,0,46.18,49.97a4.788,4.788,0,0,0,1.186,2.291c2.338,2.7,9.864,7.526,34,9.433" transform="translate(-46.18)" fill="#7b868c"/>
          </g>
        </g>
      </g>
    </g>
  </g>
</svg>