<svg xmlns="http://www.w3.org/2000/svg" xmlns:xlink="http://www.w3.org/1999/xlink" width="274.528" height="56.118" viewBox="0 0 274.528 56.118">
  <defs>
    <clipPath id="clip-path">
      <rect id="Rectangle_170" data-name="Rectangle 170" width="44.024" height="20.293" fill="none"/>
    </clipPath>
    <clipPath id="clip-path-3">
      <rect id="Rectangle_172" data-name="Rectangle 172" width="53.139" height="22.457" fill="none"/>
    </clipPath>
  </defs>
  <g id="LOGO_COLORED" data-name="LOGO COLORED" transform="translate(-41.825 -22.907)">
    <g id="Group_263" data-name="Group 263" transform="translate(-101.274 9)">
      <path id="Path_154" data-name="Path 154" d="M420.094,105.871v-.851H414.42v.851h2.412v5.378h.85v-5.378Z" transform="translate(-102.425 -47.169)" fill="#8d0034"/>
      <path id="Path_155" data-name="Path 155" d="M389.713,105.03a3.114,3.114,0,1,0,1.688,5.729l.44.5h.994l-.859-.973a3.11,3.11,0,0,0-2.264-5.256m.994,3.821h-.994l1.117,1.261a2.275,2.275,0,1,1,.576-.465l-.7-.8Z" transform="translate(-86.371 -47.175)" fill="#8d0034"/>
      <path id="Path_156" data-name="Path 156" d="M446.412,106.938a1.914,1.914,0,0,0-1.879-1.908H441.91v6.229h.851v-2.408h1.688l1.363,2.408h.851l-1.443-2.547a1.905,1.905,0,0,0,1.193-1.769m-3.652-1.062H444.5a1.062,1.062,0,0,1,0,2.124h-1.739v-2.124Z" transform="translate(-118.283 -47.175)" fill="#8d0034"/>
      <path id="Path_157" data-name="Path 157" d="M429.222,105.03h-.85l-2.552,6.229h.851l.639-1.557h2.979l.639,1.557h.851l-2.552-6.229Zm.715,3.821h-2.285l1.142-2.784,1.143,2.784Z" transform="translate(-109.001 -47.175)" fill="#8d0034"/>
      <path id="Path_158" data-name="Path 158" d="M405.746,105.03H404.9l-2.556,6.229h.851l.639-1.557h2.979l.639,1.557h.851l-2.556-6.229Zm.715,3.821h-2.285l1.143-2.784Z" transform="translate(-95.457 -47.175)" fill="#8d0034"/>
      <path id="Path_159" data-name="Path 159" d="M482.611,107.548a2.552,2.552,0,1,0-4.452,1.7h-3.436a2.544,2.544,0,0,0-1.9-4.244h-2.835v-1.98h-.851v6.229h-6.952v-3.4h-.851V110.1a1.7,1.7,0,0,1-1.7,1.7,1.572,1.572,0,0,1-.284-.03v.851a2.076,2.076,0,0,0,.284.03,2.548,2.548,0,0,0,2.552-2.492h0V110.1h17.9a2.553,2.553,0,0,0,2.535-2.547m-12.627-1.7h2.835a1.7,1.7,0,1,1,0,3.4h-2.839v-3.4Zm10.075,3.4h0a1.7,1.7,0,1,1,1.7-1.7,1.7,1.7,0,0,1-1.7,1.7" transform="translate(-128.343 -46.015)" fill="#8d0034"/>
      <rect id="Rectangle_173" data-name="Rectangle 173" width="0.851" height="0.851" transform="translate(350.582 57.005)" fill="#8d0034"/>
      <rect id="Rectangle_174" data-name="Rectangle 174" width="0.851" height="0.851" transform="translate(352 57.005)" fill="#8d0034"/>
      <path id="Path_105" data-name="Path 105" d="M557.634,23.25l-1.5.9a.593.593,0,0,0-.3.5v8.527h1.79V23.25Z" transform="translate(-184.003 0)" fill="#00053e"/>
      <path id="Path_106" data-name="Path 106" d="M520.723,27.82H522.9a.6.6,0,0,0,.5-.292l.906-1.494h-3.584a3.578,3.578,0,0,0-3.584,3.576,3.532,3.532,0,0,0,.5,1.79h-3.284V23.25l-1.5.9a.593.593,0,0,0-.3.5v8.527h16.325V23.25l-1.5.9h0a.593.593,0,0,0-.3.5V31.4h-6.373a1.79,1.79,0,0,1,0-3.58" transform="translate(-159.037 0)" fill="#00053e"/>
      <path id="Path_107" data-name="Path 107" d="M410.934,23.25l-1.5.9a.592.592,0,0,0-.3.5V31.4h-1.989V23.25l-1.5.9a.6.6,0,0,0-.3.5V31.4h-3.284a3.528,3.528,0,0,0,.5-1.786,3.578,3.578,0,0,0-3.584-3.576h-4.38v-2.78l-1.5.9a.592.592,0,0,0-.3.5V31.4h-4.38V27.02l-1.5.9h0a.593.593,0,0,0-.3.5V31.4h-2.789v-4.38l-1.5.9h0a.593.593,0,0,0-.3.5v4.76a1.791,1.791,0,0,1-1.79,1.79,1.736,1.736,0,0,1-.4-.047v1.794a3.091,3.091,0,0,0,.4.042,3.578,3.578,0,0,0,3.584-3.576h27.073V23.25ZM398.988,31.4h-4.38V27.82h4.38a1.788,1.788,0,1,1,0,3.576" transform="translate(-82.495 0)" fill="#00053e"/>
      <path id="Path_108" data-name="Path 108" d="M377.914,23.25l-1.5.9h0a.593.593,0,0,0-.3.5v8.527h1.79V23.25Z" transform="translate(-80.332 0)" fill="#00053e"/>
      <path id="Path_109" data-name="Path 109" d="M341.224,23.25l-1.5.9a.593.593,0,0,0-.3.5v8.527h1.79V23.25Z" transform="translate(-59.167 0)" fill="#00053e"/>
      <path id="Path_110" data-name="Path 110" d="M305.143,33.181V23.25l-1.5.9a.593.593,0,0,0-.3.5V31.4H300.92a3.226,3.226,0,0,0,.042-.406,3.584,3.584,0,0,0-7.168,0,3.214,3.214,0,0,0,.042.406h-3.724a3.528,3.528,0,0,0,.5-1.79,3.578,3.578,0,0,0-3.584-3.576H283.44l.906,1.494a.6.6,0,0,0,.5.3h2.175a1.788,1.788,0,1,1,0,3.576H283.44v1.79h11.125a3.549,3.549,0,0,0,5.624,0h4.951Zm-7.765-.406a1.788,1.788,0,1,1,1.79-1.786,1.787,1.787,0,0,1-1.79,1.786" transform="translate(-26.87 0)" fill="#00053e"/>
      <path id="Path_111" data-name="Path 111" d="M573.057,33.181h32.65V23.25l-1.5.9h0a.593.593,0,0,0-.3.5V31.4h-3.284a3.533,3.533,0,0,0,.5-1.79,3.578,3.578,0,0,0-3.584-3.576H594.87l-.457-1.066a.542.542,0,0,0-.432-.317h0l-1.591-.22.757,1.765h0a3.534,3.534,0,0,0-2.078,5.2h-3.284v-4.38l-1.5.9a.592.592,0,0,0-.3.5v2.971H583.2v-4.38l-1.5.9a.593.593,0,0,0-.3.5v2.971h-5.277a3.529,3.529,0,0,0,.5-1.79,3.584,3.584,0,1,0-3.584,3.576m24.488-5.366h0a1.79,1.79,0,0,1,0,3.58h-.368l-1.536-3.576h1.9Zm-3.686.03,1.523,3.546h-1.223a1.785,1.785,0,0,1-.3-3.546m-20.8-.03a1.79,1.79,0,1,1-1.794,1.79,1.788,1.788,0,0,1,1.794-1.79" transform="translate(-191.86 0)" fill="#00053e"/>
      <path id="Path_112" data-name="Path 112" d="M660.106,24.151h0a.592.592,0,0,0-.3.5v8.527h1.79V23.25l-1.5.9Z" transform="translate(-243.978 0)" fill="#00053e"/>
      <path id="Path_113" data-name="Path 113" d="M254.582,36.96h0V29.808l-1.5.9a.6.6,0,0,0-.3.5V35.17H250.4V32.487a2.687,2.687,0,0,0-5.374,0V35.17h-4.579a1.79,1.79,0,0,1,0-3.58h1.591l-.9-1.494a.6.6,0,0,0-.508-.3h-.182a3.576,3.576,0,1,0,0,7.151h6.368V32.483a.9.9,0,0,1,1.794,0v4.468h5.971Z" transform="translate(0 -3.778)" fill="#00053e"/>
      <path id="Path_114" data-name="Path 114" d="M478.22,31.2a3.578,3.578,0,0,0-3.584,3.576,3.22,3.22,0,0,0,.042.406h-5.315a3.528,3.528,0,0,0,.5-1.79,3.584,3.584,0,1,0-3.584,3.576h9.132A3.575,3.575,0,1,0,478.22,31.2m-11.946,3.982a1.788,1.788,0,1,1,1.79-1.79,1.788,1.788,0,0,1-1.79,1.79m11.946,1.384a1.788,1.788,0,1,1,1.79-1.786,1.787,1.787,0,0,1-1.79,1.786" transform="translate(-130.27 -3.79)" fill="#00053e"/>
      <path id="Path_115" data-name="Path 115" d="M351.437,69.6,348.75,63.05h-1.79l3.584,8.742h1.79l3.584-8.742h-1.79Z" transform="translate(-63.511 -22.959)" fill="#00053e"/>
      <rect id="Rectangle_160" data-name="Rectangle 160" width="1.79" height="8.742" transform="translate(259.761 40.091)" fill="#00053e"/>
      <rect id="Rectangle_161" data-name="Rectangle 161" width="1.79" height="8.742" transform="translate(246.618 40.091)" fill="#00053e"/>
      <path id="Path_116" data-name="Path 116" d="M271.967,69.6,269.28,63.05h-1.79l3.584,8.742h1.79l3.584-8.742h-1.79Z" transform="translate(-17.669 -22.959)" fill="#00053e"/>
      <rect id="Rectangle_162" data-name="Rectangle 162" width="1.79" height="8.742" transform="translate(293.6 40.091)" fill="#00053e"/>
      <path id="Path_117" data-name="Path 117" d="M553.893,66.626H550.11V63.05h-1.79v8.742h1.79V68.217h3.783v3.576h1.794V63.05h-1.794Z" transform="translate(-179.665 -22.959)" fill="#00053e"/>
      <path id="Path_118" data-name="Path 118" d="M398.24,64.836h3.085v6.957h1.794V64.836H406.2V63.05H398.24Z" transform="translate(-93.092 -22.959)" fill="#00053e"/>
      <path id="Path_119" data-name="Path 119" d="M433.2,63.05a4.371,4.371,0,1,0,4.38,4.371,4.373,4.373,0,0,0-4.38-4.371m0,6.952a2.581,2.581,0,1,1,2.59-2.581A2.585,2.585,0,0,1,433.2,70" transform="translate(-110.732 -22.959)" fill="#00053e"/>
      <path id="Path_120" data-name="Path 120" d="M241.255,64.836h2.175a.611.611,0,0,0,.508-.292l.906-1.494H241.26a4.371,4.371,0,1,0,0,8.742h3.584V70H241.26a2.581,2.581,0,1,1,0-5.162" transform="translate(-0.012 -22.959)" fill="#00053e"/>
      <rect id="Rectangle_163" data-name="Rectangle 163" width="1.79" height="8.742" transform="translate(314.703 40.091)" fill="#00053e"/>
      <path id="Path_121" data-name="Path 121" d="M458.586,69.08,454.6,63.05H452.81v8.742H454.6v-6.03l3.982,6.03h1.79V63.05h-1.79Z" transform="translate(-124.57 -22.959)" fill="#00053e"/>
      <path id="Path_122" data-name="Path 122" d="M486.5,63.05h0l-3.584,8.742h1.79l.732-1.79h3.91l.732,1.79h1.79L488.29,63.05H486.5Zm-.406,5.366,1.3-3.178,1.3,3.178Z" transform="translate(-141.939 -22.959)" fill="#00053e"/>
      <path id="Path_123" data-name="Path 123" d="M505.5,63.05h1.79v5.167a1.792,1.792,0,0,0,3.584,0V63.05h1.79v5.167a3.584,3.584,0,0,1-7.168,0V63.05Z" transform="translate(-154.964 -22.959)" fill="#00053e"/>
      <path id="Path_124" data-name="Path 124" d="M572.93,63.05a4.371,4.371,0,1,0,4.38,4.371,4.373,4.373,0,0,0-4.38-4.371m0,6.952a2.581,2.581,0,1,1,2.585-2.581A2.585,2.585,0,0,1,572.93,70" transform="translate(-191.335 -22.959)" fill="#00053e"/>
      <rect id="Rectangle_164" data-name="Rectangle 164" width="1.79" height="8.742" transform="translate(396.126 40.091)" fill="#00053e"/>
      <path id="Path_125" data-name="Path 125" d="M599.437,66.029a2.983,2.983,0,0,0-2.987-2.979h-4.38v8.742h1.79v-2.78H595.7l1.938,2.78h1.79l-2.052-2.945a2.971,2.971,0,0,0,2.052-2.818m-2.987,1.193h-2.59V64.84h2.59a1.193,1.193,0,1,1,0,2.387" transform="translate(-204.902 -22.959)" fill="#00053e"/>
      <path id="Path_126" data-name="Path 126" d="M647.73,67.328l-2.585-4.278H643.35l3.483,5.759v2.983h1.794V68.809l3.483-5.759h-1.79Z" transform="translate(-234.483 -22.959)" fill="#00053e"/>
      <path id="Path_127" data-name="Path 127" d="M381.594,63.05h0l-3.584,8.742h1.79l.732-1.79h3.91l.732,1.79h1.79L383.38,63.05h-1.79Zm-.406,5.366,1.3-3.178,1.3,3.178Z" transform="translate(-81.422 -22.959)" fill="#00053e"/>
      <path id="Path_128" data-name="Path 128" d="M334.454,63.05h-1.79l-3.584,8.742h1.79L331.6,70h3.91l.732,1.79h1.79L334.45,63.05Zm.406,5.366h-2.607l1.3-3.178Z" transform="translate(-53.197 -22.959)" fill="#00053e"/>
      <path id="Path_129" data-name="Path 129" d="M360.835,32.15l-1.5.9a.593.593,0,0,0-.3.5V34.74a1.791,1.791,0,0,1-1.79,1.79h-.6a1.788,1.788,0,0,1-1.79-1.79V32.15l-1.5.9a.593.593,0,0,0-.3.5V34.74a3.578,3.578,0,0,0,3.584,3.576h.6a3.581,3.581,0,0,0,3.584-3.576V32.15Z" transform="translate(-67.035 -5.134)" fill="#00053e"/>
      <path id="Path_130" data-name="Path 130" d="M525.74,64.836h3.085v6.957h1.79V64.836H533.7V63.05H525.74Z" transform="translate(-166.64 -22.959)" fill="#00053e"/>
      <path id="Path_131" data-name="Path 131" d="M621.24,64.836h3.085v6.957h1.794V64.836H629.2V63.05H621.24Z" transform="translate(-221.729 -22.959)" fill="#00053e"/>
      <path id="Path_132" data-name="Path 132" d="M575.106,24.325V23.25h-1.075a.462.462,0,0,0-.461.461v1.075h1.075a.462.462,0,0,0,.461-.461" transform="translate(-194.23 0)" fill="#00053e"/>
      <path id="Path_133" data-name="Path 133" d="M580.246,24.325V23.25h-1.075a.462.462,0,0,0-.461.461v1.075h1.075a.462.462,0,0,0,.461-.461" transform="translate(-197.195 0)" fill="#00053e"/>
      <path id="Path_134" data-name="Path 134" d="M606.57,49.841v1.075h1.075a.462.462,0,0,0,.461-.461V49.38h-1.075a.462.462,0,0,0-.461.461" transform="translate(-213.266 -15.073)" fill="#00053e"/>
      <path id="Path_135" data-name="Path 135" d="M613.246,50.455V49.38h-1.075a.462.462,0,0,0-.461.461v1.075h1.075a.462.462,0,0,0,.461-.461" transform="translate(-216.231 -15.073)" fill="#00053e"/>
      <path id="Path_136" data-name="Path 136" d="M468.316,24.325V23.25h-1.075a.462.462,0,0,0-.461.461v1.075h1.075a.462.462,0,0,0,.461-.461" transform="translate(-132.629 0)" fill="#00053e"/>
      <path id="Path_137" data-name="Path 137" d="M473.446,24.325V23.25h-1.075a.462.462,0,0,0-.461.461v1.075h1.075a.462.462,0,0,0,.461-.461" transform="translate(-135.588 0)" fill="#00053e"/>
      <path id="Path_138" data-name="Path 138" d="M395.156,50.455V49.38h-1.075a.462.462,0,0,0-.461.461v1.075h1.075a.462.462,0,0,0,.461-.461" transform="translate(-90.427 -15.073)" fill="#00053e"/>
      <path id="Path_139" data-name="Path 139" d="M400.3,50.455V49.38h-1.075a.462.462,0,0,0-.461.461v1.075h1.075a.462.462,0,0,0,.461-.461" transform="translate(-93.392 -15.073)" fill="#00053e"/>
      <path id="Path_140" data-name="Path 140" d="M361.966,24.325V23.25h-1.075a.462.462,0,0,0-.461.461v1.075H361.5a.462.462,0,0,0,.461-.461" transform="translate(-71.281 0)" fill="#00053e"/>
      <path id="Path_141" data-name="Path 141" d="M276.346,24.325V23.25h-1.075a.462.462,0,0,0-.461.461v1.075h1.075a.462.462,0,0,0,.461-.461" transform="translate(-21.891 0)" fill="#00053e"/>
      <path id="Path_142" data-name="Path 142" d="M248.136,50.455V49.38h-1.075a.462.462,0,0,0-.461.461v1.075h1.075a.462.462,0,0,0,.461-.461" transform="translate(-5.618 -15.073)" fill="#00053e"/>
      <path id="Path_143" data-name="Path 143" d="M253.276,50.455V49.38H252.2a.462.462,0,0,0-.461.461v1.075h1.075a.462.462,0,0,0,.461-.461" transform="translate(-8.584 -15.073)" fill="#00053e"/>
      <path id="Path_144" data-name="Path 144" d="M599.264,24.807h-.719a.381.381,0,0,1,0-.762h.719v-.8h-.719a1.18,1.18,0,0,0-1.181,1.176,1.123,1.123,0,0,0,.064.381H596.15v.8h3.11v-.8Z" transform="translate(-207.256 0)" fill="#00053e"/>
      <path id="Path_145" data-name="Path 145" d="M301.24,70V63.05h-1.79v8.742h7.367a.611.611,0,0,0,.508-.292l.906-1.494h-6.982Z" transform="translate(-36.105 -22.959)" fill="#00053e"/>
    </g>
    <g id="Group_267" data-name="Group 267" transform="translate(29.3 22.907)">
      <path id="Path_149" data-name="Path 149" d="M38.228,43.037a167.32,167.32,0,0,0,47.343-6.979C28.383,42.477,28.337,33.572,29.3,29.878s4.647-6.3,4.647-6.3c-15.094,6.494-21.977,19.457,4.279,19.457" transform="translate(-4.681 -13.726)" fill="#0095da"/>
      <path id="Path_148" data-name="Path 148" d="M25.76,81.789s6.348,7.426,15.88,7.426c10.919,0,26.657-4.492,53.527-18.8,0,0-55.562,22.637-69.407,11.379" transform="translate(-7.704 -40.987)" fill="#8d0034"/>
      <path id="Path_147" data-name="Path 147" d="M47.25,72.532C61.358,69.753,84.179,61.47,84.179,61.47S51.8,69.723,30.961,69.723c-18.529,0-18.186-6.778-17.881-8.287C8.52,79.636,33.217,75.3,47.25,72.532M13.079,61.437c.025-.1.05-.2.075-.3a2.234,2.234,0,0,0-.075.3" transform="translate(0 -35.59)" fill="#3abb9d"/>
      <path id="Path_160" data-name="Path 160" d="M178.91,52.16l6.573,7.092,14.7-6.686a30.211,30.211,0,0,1-21.271-.4" transform="translate(-96.854 -30.363)" fill="#003b82"/>
      <path id="Path_161" data-name="Path 161" d="M85.037,106.013A28.056,28.056,0,0,0,111.994,85.72c-18.863,9.386-33.047,14.049-44.024,14.5a27.938,27.938,0,0,0,17.062,5.792" transform="translate(-32.275 -49.899)" fill="#d5d8da"/>
      <path id="Path_162" data-name="Path 162" d="M58.817,22.165c9.181.727,22.808.1,40.5-1.851A28.052,28.052,0,0,0,46.18,17.952a1.72,1.72,0,0,0,.426.823c.84.969,3.544,2.7,12.215,3.389" transform="translate(-19.591)" fill="#d5d8da"/>
      <g id="Group_265" data-name="Group 265" transform="translate(35.699 35.817)">
        <g id="Group_256" data-name="Group 256" clip-path="url(#clip-path)">
          <g id="Group_255" data-name="Group 255" clip-path="url(#clip-path)">
            <path id="Path_152" data-name="Path 152" d="M85.037,106.013A28.056,28.056,0,0,0,111.994,85.72c-18.863,9.386-33.047,14.049-44.024,14.5a27.938,27.938,0,0,0,17.062,5.792" transform="translate(-67.974 -85.716)" fill="#7b868c"/>
          </g>
        </g>
      </g>
      <g id="Group_266" data-name="Group 266" transform="translate(26.589)">
        <g id="Group_259" data-name="Group 259" clip-path="url(#clip-path-3)">
          <g id="Group_258" data-name="Group 258" clip-path="url(#clip-path-3)">
            <path id="Path_153" data-name="Path 153" d="M58.817,22.165c9.181.727,22.808.1,40.5-1.851A28.052,28.052,0,0,0,46.18,17.952a1.72,1.72,0,0,0,.426.823c.84.969,3.544,2.7,12.215,3.389" transform="translate(-46.18)" fill="#7b868c"/>
          </g>
        </g>
      </g>
    </g>
  </g>
</svg>
