<svg xmlns="http://www.w3.org/2000/svg" width="68.471" height="17.547" viewBox="0 0 68.471 17.547">
  <g id="arrow" transform="translate(-39.451 -7.769)">
    <path id="arrow-right" d="M39.251,11.551l-5.38-5.436a1.39,1.39,0,0,0-1.974,0h0a1.39,1.39,0,0,0,0,1.96l4.949,4.991H-26.61A1.39,1.39,0,0,0-28,14.457h0a1.39,1.39,0,0,0,1.39,1.39H36.93L31.9,20.866a1.39,1.39,0,0,0,0,1.974h0a1.39,1.39,0,0,0,1.974,0l5.38-5.394A4.171,4.171,0,0,0,39.251,11.551Z" transform="translate(67.451 2.065)" fill="#00053e"/>
  </g>
</svg>
