<svg xmlns="http://www.w3.org/2000/svg" width="24.513" height="22.909" viewBox="0 0 24.513 22.909">
  <g id="calendar_14_" data-name="calendar (14)" transform="translate(-1 -2)">
    <path id="Path_207" data-name="Path 207" d="M22.84,2H20.549V4.291a.764.764,0,0,1-1.527,0V2H6.8V4.291a.764.764,0,0,1-1.527,0V2H2.985A2.1,2.1,0,0,0,1,4.291V7.04H25.436V4.291A2.577,2.577,0,0,0,22.84,2ZM1,8.644V22.618a2.072,2.072,0,0,0,2.062,2.291H22.916a2.577,2.577,0,0,0,2.6-2.291V8.644ZM7.8,21.473H5.964a.6.6,0,0,1-.611-.611V18.953a.6.6,0,0,1,.611-.611H7.873a.6.6,0,0,1,.611.611v1.909a.669.669,0,0,1-.687.611Zm0-6.873H5.964a.6.6,0,0,1-.611-.611V12.08a.6.6,0,0,1,.611-.611H7.873a.6.6,0,0,1,.611.611v1.909A.669.669,0,0,1,7.8,14.6Zm6.109,6.873H12a.6.6,0,0,1-.611-.611V18.953A.6.6,0,0,1,12,18.342h1.909a.6.6,0,0,1,.611.611v1.909A.562.562,0,0,1,13.905,21.473Zm0-6.873H12a.6.6,0,0,1-.611-.611V12.08A.6.6,0,0,1,12,11.469h1.909a.6.6,0,0,1,.611.611v1.909A.562.562,0,0,1,13.905,14.6Zm6.109,6.873H18.105a.6.6,0,0,1-.611-.611V18.953a.6.6,0,0,1,.611-.611h1.909a.6.6,0,0,1,.611.611v1.909A.562.562,0,0,1,20.015,21.473Zm0-6.873H18.105a.6.6,0,0,1-.611-.611V12.08a.6.6,0,0,1,.611-.611h1.909a.6.6,0,0,1,.611.611v1.909A.562.562,0,0,1,20.015,14.6Z" fill="#0095da"/>
  </g>
</svg>
