<svg xmlns="http://www.w3.org/2000/svg" width="33" height="33" viewBox="0 0 33 33">
  <g id="Icon_akar-clock" data-name="Icon akar-clock" transform="translate(-1.5 -1.5)">
    <path id="Path_197" data-name="Path 197" d="M18,1.5a16.5,16.5,0,0,1,6.423,31.7A16.5,16.5,0,0,1,11.577,2.8,16.4,16.4,0,0,1,18,1.5Zm0,30a13.5,13.5,0,1,0-9.546-3.954A13.412,13.412,0,0,0,18,31.5Z" fill="#39bb9d"/>
    <path id="Path_198" data-name="Path 198" d="M22.5,25.5a1.5,1.5,0,0,1-1.061-.439L17.818,21.44A4.47,4.47,0,0,1,16.5,18.258V9a1.5,1.5,0,0,1,3,0v9.258a1.49,1.49,0,0,0,.44,1.06l3.621,3.621A1.5,1.5,0,0,1,22.5,25.5Z" fill="#39bb9d"/>
  </g>
</svg>
