<svg xmlns="http://www.w3.org/2000/svg" width="19.922" height="19.922" viewBox="0 0 19.922 19.922">
  <g id="Layer_x0020_1" transform="translate(-147 -147)">
    <path id="Subtraction_5" data-name="Subtraction 5" d="M9.961,19.922a9.961,9.961,0,0,1-7.043-17A9.96,9.96,0,1,1,17,17,9.9,9.9,0,0,1,9.961,19.922ZM5.318,8.84a.239.239,0,0,0-.168.07L3.678,10.382a.237.237,0,0,0-.07.175.208.208,0,0,0,.07.152L7.6,14.633a.212.212,0,0,0,.163.07.231.231,0,0,0,.163-.07l7.532-7.544a.208.208,0,0,0,.07-.152.238.238,0,0,0-.07-.175L13.99,5.291a.225.225,0,0,0-.327,0l-5.9,5.9L5.476,8.91A.209.209,0,0,0,5.318,8.84Z" transform="translate(147 147)" fill="#0095da"/>
  </g>
</svg>
