<svg xmlns="http://www.w3.org/2000/svg" width="20.222" height="17.879" viewBox="0 0 20.222 17.879">
  <g id="Group_298" data-name="Group 298" transform="translate(-960.64 -979.252)">
    <path id="Icon_ion-ios-arrow-forward" data-name="Icon ion-ios-arrow-forward" d="M18.387,15.132l-6.766-6.76a1.272,1.272,0,0,1,0-1.8,1.288,1.288,0,0,1,1.81,0l7.665,7.66a1.275,1.275,0,0,1,.037,1.762l-7.7,7.713a1.278,1.278,0,0,1-1.81-1.8Z" transform="translate(949.394 973.056)" fill="#0095da"/>
    <path id="Icon_ion-ios-arrow-forward-2" data-name="Icon ion-ios-arrow-forward" d="M18.387,15.132l-6.766-6.76a1.272,1.272,0,0,1,0-1.8,1.288,1.288,0,0,1,1.81,0l7.665,7.66a1.275,1.275,0,0,1,.037,1.762l-7.7,7.713a1.278,1.278,0,0,1-1.81-1.8Z" transform="translate(959.394 973.056)" fill="#0095da"/>
  </g>
</svg>
