<svg xmlns="http://www.w3.org/2000/svg" width="31.838" height="31.319" viewBox="0 0 31.838 31.319">
  <path id="edit-text_2_" data-name="edit-text (2)" d="M20.812,4.058l1.3-1.3a4.169,4.169,0,0,1,5.76,0l1.051,1.051a4.04,4.04,0,0,1,0,5.746l-1.3,1.3L20.812,4.043Zm-1.57,1.57L5.752,19.118a2.521,2.521,0,0,0-.74,1.6l-.4,4.339a1.9,1.9,0,0,0,.533,1.481,1.827,1.827,0,0,0,1.3.548h.163l4.339-.4a2.616,2.616,0,0,0,1.6-.755l13.49-13.49L19.227,5.628ZM33.088,31.809A1.119,1.119,0,0,0,31.977,30.7H2.361a1.111,1.111,0,1,0,0,2.221H31.977A1.119,1.119,0,0,0,33.088,31.809Z" transform="translate(-1.25 -1.6)" fill="#0095da"/>
</svg>
