<svg xmlns="http://www.w3.org/2000/svg" width="43.068" height="33" viewBox="0 0 43.068 33">
  <g id="email_4_" data-name="email (4)" transform="translate(-0.001 0)">
    <path id="Union_6" data-name="Union 6" d="M3.784,33A3.485,3.485,0,0,1,2.2,32.613L15.161,18.45l3.608,3.943a3.759,3.759,0,0,0,5.53,0l3.608-3.943L40.861,32.613A3.472,3.472,0,0,1,39.281,33Zm25.9-16.5L42.665,2.311a4.387,4.387,0,0,1,.4,1.815V28.877a4.376,4.376,0,0,1-.4,1.813ZM0,28.877V4.126A4.386,4.386,0,0,1,.4,2.311L13.38,16.5.4,30.69A4.381,4.381,0,0,1,0,28.877Zm20.555-8.425-4.5-4.92v0l0,0L2.2.388A3.5,3.5,0,0,1,3.784,0h35.5a3.509,3.509,0,0,1,1.579.388L27.018,15.525s0,0,0,0l0,0-4.5,4.92a1.417,1.417,0,0,1-1.957,0Z" transform="translate(0.001 0)" fill="#00695E"/>
  </g>
</svg>
