<svg width="18" height="18" viewBox="0 0 18 18" fill="none" xmlns="http://www.w3.org/2000/svg">
<path d="M10.125 12.439C10.125 13.0603 9.62132 13.564 9 13.564C8.37868 13.564 7.875 13.0603 7.875 12.439C7.875 11.8177 8.37868 11.314 9 11.314C9.62132 11.314 10.125 11.8177 10.125 12.439Z" fill="#AAAAAA"/>
<path fill-rule="evenodd" clip-rule="evenodd" d="M4.45657 7.50041C4.45441 7.405 4.45312 7.303 4.45312 7.19531C4.45313 6.53054 4.5019 5.62786 4.70536 4.7123C4.90709 3.80454 5.27432 2.82226 5.95507 2.05641C6.65933 1.26412 7.65992 0.75 9 0.75C10.3401 0.75 11.3407 1.26412 12.0449 2.05641C12.7257 2.82226 13.0929 3.80454 13.2946 4.7123C13.4981 5.62786 13.5469 6.53054 13.5469 7.19531C13.5469 7.303 13.5456 7.405 13.5434 7.50041C14.766 7.52356 15.75 8.52187 15.75 9.75V15C15.75 16.2426 14.7426 17.25 13.5 17.25H4.5C3.25736 17.25 2.25 16.2426 2.25 15V9.75C2.25 8.52187 3.23397 7.52356 4.45657 7.50041ZM12.043 7.5C12.0454 7.40599 12.0469 7.30401 12.0469 7.19531C12.0469 6.59446 12.0019 5.80964 11.8304 5.0377C11.6571 4.25796 11.3681 3.55274 10.9238 3.05296C10.5031 2.57963 9.90992 2.25 9 2.25C8.09008 2.25 7.49692 2.57963 7.07618 3.05296C6.63194 3.55274 6.34291 4.25796 6.16964 5.0377C5.9981 5.80964 5.95312 6.59446 5.95312 7.19531C5.95312 7.30401 5.95459 7.40599 5.95699 7.5H12.043ZM14.25 9.75C14.25 9.33579 13.9142 9 13.5 9H4.5C4.08579 9 3.75 9.33579 3.75 9.75V15C3.75 15.4142 4.08579 15.75 4.5 15.75H13.5C13.9142 15.75 14.25 15.4142 14.25 15V9.75Z" fill="#AAAAAA"/>
</svg>
