<svg xmlns="http://www.w3.org/2000/svg" xmlns:xlink="http://www.w3.org/1999/xlink" width="669" height="72" viewBox="0 0 669 72">
  <defs>
    <clipPath id="clip-path">
      <rect id="Rectangle_200" data-name="Rectangle 200" width="669" height="72" rx="10" transform="translate(626 31)" fill="#def5ff"/>
    </clipPath>
  </defs>
  <g id="Mask_Group_260" data-name="Mask Group 260" transform="translate(-626 -31)" clip-path="url(#clip-path)">
    <path id="Path_197" data-name="Path 197" d="M36.571,0C90.94,0,134.6,20.277,134.6,20.277,16.184,1.627,16.089,27.5,18.088,38.234s9.622,18.3,9.622,18.3C-3.545,37.664-17.8,0,36.571,0" transform="translate(1252.435 74.734) rotate(-60)" fill="#0095da" opacity="0.066"/>
    <path id="Path_198" data-name="Path 198" d="M36.571,0C90.94,0,134.6,20.277,134.6,20.277,16.184,1.627,16.089,27.5,18.088,38.234s9.622,18.3,9.622,18.3C-3.545,37.664-17.8,0,36.571,0" transform="translate(1178.096 58.03) rotate(23)" fill="#0095da" opacity="0.066"/>
    <path id="Path_202" data-name="Path 202" d="M36.571,56.532c54.369,0,98.033-20.277,98.033-20.277C16.184,54.9,16.089,29.031,18.088,18.3S27.71,0,27.71,0C-3.545,18.868-17.8,56.532,36.571,56.532" transform="matrix(0.921, -0.391, 0.391, 0.921, 710.88, 26.962)" fill="#0095da" opacity="0.066"/>
    <path id="Path_199" data-name="Path 199" d="M36.571,0C90.94,0,134.6,20.277,134.6,20.277,16.184,1.627,16.089,27.5,18.088,38.234s9.622,18.3,9.622,18.3C-3.545,37.664-17.8,0,36.571,0" transform="translate(1085.449 68.641) rotate(-143)" fill="#0095da" opacity="0.066"/>
    <path id="Path_200" data-name="Path 200" d="M36.571,0C90.94,0,134.6,20.277,134.6,20.277,16.184,1.627,16.089,27.5,18.088,38.234s9.622,18.3,9.622,18.3C-3.545,37.664-17.8,0,36.571,0" transform="translate(905.624 58.03) rotate(45)" fill="#0095da" opacity="0.066"/>
    <path id="Path_201" data-name="Path 201" d="M36.571,0C90.94,0,134.6,20.277,134.6,20.277,16.184,1.627,16.089,27.5,18.088,38.234s9.622,18.3,9.622,18.3C-3.545,37.664-17.8,0,36.571,0" transform="matrix(0.695, 0.719, -0.719, 0.695, 634.808, 30.582)" fill="#0095da" opacity="0.066"/>
  </g>
</svg>
