<svg xmlns="http://www.w3.org/2000/svg" width="34.526" height="33.794" viewBox="0 0 34.526 33.794">
  <g id="report_6_" data-name="report (6)" transform="translate(0)">
    <g id="Group_286" data-name="Group 286" transform="translate(0)">
      <path id="Path_188" data-name="Path 188" d="M255.735,109.505v18.454a3.836,3.836,0,0,1-3.836,3.835h-20.46a3.836,3.836,0,0,1-3.836-3.835v-7.117a10.867,10.867,0,1,0,1.918-21.563c-.331,0-.658.015-.979.043a3.83,3.83,0,0,1,2.9-1.322h12.787v7.67a3.836,3.836,0,0,0,3.836,3.835Zm-20.46,17.9v-1.278a1.279,1.279,0,0,0-2.557,0V127.4a1.279,1.279,0,0,0,2.557,0Zm5.115,0v-5.113a1.279,1.279,0,0,0-2.557,0V127.4a1.279,1.279,0,0,0,2.557,0Zm5.115,0v-3.835a1.279,1.279,0,0,0-2.557,0V127.4a1.279,1.279,0,0,0,2.557,0Zm5.115,0v-8.948a1.279,1.279,0,0,0-2.557,0V127.4a1.279,1.279,0,0,0,2.557,0Zm-3.836-29.378a3.837,3.837,0,0,1,2.4,1.231l5.55,6.1a3.85,3.85,0,0,1,.868,1.592h-7.543a1.279,1.279,0,0,1-1.279-1.278Zm-9.05,13.4a8.312,8.312,0,1,1-9.492-9.489v6.933a2.557,2.557,0,0,0,2.557,2.557Zm-6.934-9.489a8.32,8.32,0,0,1,6.934,6.933H230.8Z" transform="translate(-221.209 -98)" fill="#0095da" fill-rule="evenodd"/>
    </g>
  </g>
</svg>
