<svg xmlns="http://www.w3.org/2000/svg" width="30.714" height="30.718" viewBox="0 0 30.714 30.718">
  <g id="Layer_4">
    <path id="Path_189" data-name="Path 189" d="M24.192,6.637a12.413,12.413,0,1,0,0,17.554,12.412,12.412,0,0,0,0-17.554ZM10.738,21.594a1.064,1.064,0,0,1-1.5,0A8.752,8.752,0,0,1,7.27,12.237a1.064,1.064,0,1,1,1.983.77,6.624,6.624,0,0,0,1.484,7.083,1.062,1.062,0,0,1,0,1.5Z" transform="translate(-3.002 -3.001)" fill="#0095da"/>
    <path id="Path_190" data-name="Path 190" d="M29.658,24.612l-5.026-5.026a14.032,14.032,0,0,1-2.192,2.852,14.264,14.264,0,0,1-2.857,2.176l5.042,5.042a3.563,3.563,0,1,0,5.033-5.044Z" transform="translate(0.009 0.01)" fill="#0095da"/>
  </g>
</svg>
