<svg xmlns="http://www.w3.org/2000/svg" width="37.406" height="33.146" viewBox="0 0 37.406 33.146">
  <g id="signature-with-a-pen" transform="translate(2.723 0)">
    <path id="Path_170" data-name="Path 170" d="M25.38,13.222,30.6,15.141,26.259,26.973c-.407,1.113-2.612,4.6-4.148,5.305l-.373,1.017a.639.639,0,0,1-.6.419.659.659,0,0,1-.22-.039.638.638,0,0,1-.378-.819l.352-.961c-.779-1.514-.2-5.911.144-6.841ZM32.942.7a3.038,3.038,0,0,0-3.6,1.875l-3.147,8.575,5.224,1.917L34.561,4.5C34.957,3.422,34.381,1.23,32.942.7ZM23.487,12.778a1.273,1.273,0,0,0,1.639-.752l3.321-8.957a1.275,1.275,0,0,0-2.391-.885l-3.321,8.957A1.273,1.273,0,0,0,23.487,12.778Zm-5.346,16.8a4.955,4.955,0,0,0-1.461-1.036,3.814,3.814,0,0,0-1.529-.275l-.14,0a1.981,1.981,0,0,0-1.538-1.3,3.113,3.113,0,0,0-2.4.637c.05-.285.133-.624.194-.867a5.589,5.589,0,0,0,.247-2.361,1.359,1.359,0,0,0-1.239-1.093,6.579,6.579,0,0,0-4.007,1.53c-1.194.806-1.96,1.288-2.722,1.015-.93-.331-4.023-2.848-3.576-5.09.4-2.02,1.144-5.78,3.051-7.488.642-.575,1.572-1.2,2.337-.895.9.352,1.641,1.833,1.807,3.6a1.355,1.355,0,1,0,2.7-.253c-.268-2.874-1.616-5.121-3.515-5.868-1.137-.442-2.945-.561-5.137,1.4-2.384,2.135-3.265,5.755-3.9,8.98-.32,1.61,1.9,6.954,5.327,8.172,2.087.744,3.783-.4,5.145-1.323.249-.168.495-.333.733-.481a3.622,3.622,0,0,0,.226,2.921c.885,1.331,2.136,1.476,3.717.435.061-.039.131-.085.2-.131a1.84,1.84,0,0,0,.876.874,3.584,3.584,0,0,0,1.553.3,2.151,2.151,0,0,1,.493.042,2.354,2.354,0,0,1,.7.527,8.623,8.623,0,0,0,.746.645,1.355,1.355,0,0,0,1.624-2.17A6.4,6.4,0,0,1,18.141,29.574Z" transform="translate(0 -0.567)" fill="#0095DA"/>
  </g>
</svg>
